# xmcd CD database file
#
# Track frame offsets:
#	150
#	22197
#	44385
#	67427
#	90757
#	117212
#	124820
#	141797
#
# Disc length: 2239 seconds
#
# Revision: 0
# Processed by: cddbd v1.5.1PL0 Copyright (c) Steve Scherf et al.
# Submitted via: CDex 1.51
#
DISCID=7008bd08
DTITLE=ザ・茶番 - 死なぬが仏
DYEAR=1996
DGENRE=Rock
TTITLE0=死ぬ気満々
TTITLE1=畑
TTITLE2=感じる事
TTITLE3=故郷
TTITLE4=現代科学の粋を駆使して
TTITLE5=テレパシー
TTITLE6=生かされ上手
TTITLE7=オギャー
EXTD=YEAR: 1996
EXTT0=
EXTT1=
EXTT2=
EXTT3=
EXTT4=
EXTT5=
EXTT6=
EXTT7=
PLAYORDER=
